<svg xmlns="http://www.w3.org/2000/svg" xmlns:svg="http://www.w3.org/2000/svg" id="svg20" width="24" height="24" version="1.1" viewBox="0 0 24 24"><metadata id="metadata26"/><defs id="defs24"><marker id="marker1582" orient="auto" overflow="visible" refX="0" refY="0"><path id="path1159" fill="#000" fill-opacity="1" fill-rule="evenodd" stroke="#000" stroke-opacity="1" stroke-width="1pt" d="M 5.77,0.0 L -2.88,5.0 L -2.88,-5.0 L 5.77,0.0 z" transform="scale(0.2)"/></marker><marker id="marker1483" orient="auto" overflow="visible" refX="0" refY="0"><path id="path1150" fill="#000" fill-opacity="1" fill-rule="evenodd" stroke="#000" stroke-opacity="1" stroke-width="1pt" d="M 5.77,0.0 L -2.88,5.0 L -2.88,-5.0 L 5.77,0.0 z" transform="scale(-0.2)"/></marker><marker id="TriangleOutS" orient="auto" overflow="visible" refX="0" refY="0"><path id="path972" fill="#000" fill-opacity="1" fill-rule="evenodd" stroke="#000" stroke-opacity="1" stroke-width="1pt" d="M 5.77,0.0 L -2.88,5.0 L -2.88,-5.0 L 5.77,0.0 z" transform="scale(0.2)"/></marker><marker id="TriangleInS" orient="auto" overflow="visible" refX="0" refY="0"><path id="path963" fill="#000" fill-opacity="1" fill-rule="evenodd" stroke="#000" stroke-opacity="1" stroke-width="1pt" d="M 5.77,0.0 L -2.88,5.0 L -2.88,-5.0 L 5.77,0.0 z" transform="scale(-0.2)"/></marker><marker id="marker9486" orient="auto" overflow="visible" refX="0" refY="0"><path id="path9484" fill="#000" fill-opacity="1" fill-rule="evenodd" stroke="#000" stroke-opacity="1" stroke-width="1pt" d="M 5.77,0.0 L -2.88,5.0 L -2.88,-5.0 L 5.77,0.0 z" transform="scale(-0.4)"/></marker><marker id="marker8912" orient="auto" overflow="visible" refX="0" refY="0"><path id="path8910" fill="#000" fill-opacity="1" fill-rule="evenodd" stroke="#000" stroke-opacity="1" stroke-width="1pt" d="M 5.77,0.0 L -2.88,5.0 L -2.88,-5.0 L 5.77,0.0 z" transform="scale(0.4)"/></marker><marker id="marker8842" orient="auto" overflow="visible" refX="0" refY="0"><path id="path8840" fill="#000" fill-opacity="1" fill-rule="evenodd" stroke="#000" stroke-opacity="1" stroke-width="1pt" d="M 5.77,0.0 L -2.88,5.0 L -2.88,-5.0 L 5.77,0.0 z" transform="scale(-0.4)"/></marker><marker id="TriangleOutM" orient="auto" overflow="visible" refX="0" refY="0"><path id="path969" fill="#1f78b4" fill-opacity="1" fill-rule="evenodd" stroke="#1f78b4" stroke-opacity="1" stroke-width="1pt" d="M 5.77,0.0 L -2.88,5.0 L -2.88,-5.0 L 5.77,0.0 z" transform="scale(0.4)"/></marker><marker id="TriangleOutL" orient="auto" overflow="visible" refX="0" refY="0"><path id="path966" fill="#000" fill-opacity="1" fill-rule="evenodd" stroke="#000" stroke-opacity="1" stroke-width="1pt" d="M 5.77,0.0 L -2.88,5.0 L -2.88,-5.0 L 5.77,0.0 z" transform="scale(0.8)"/></marker><marker id="TriangleInM" orient="auto" overflow="visible" refX="0" refY="0"><path id="path960" fill="#1f78b4" fill-opacity="1" fill-rule="evenodd" stroke="#1f78b4" stroke-opacity="1" stroke-width="1pt" d="M 5.77,0.0 L -2.88,5.0 L -2.88,-5.0 L 5.77,0.0 z" transform="scale(-0.4)"/></marker><marker id="Arrow1Mstart" orient="auto" overflow="visible" refX="0" refY="0"><path id="path830" fill="#000" fill-opacity="1" fill-rule="evenodd" stroke="#000" stroke-opacity="1" stroke-width="1pt" d="M 0.0,0.0 L 5.0,-5.0 L -12.5,0.0 L 5.0,5.0 L 0.0,0.0 z" transform="scale(0.4) translate(10,0)"/></marker><marker id="Arrow2Lend" orient="auto" overflow="visible" refX="0" refY="0"><path id="path845" fill="#000" fill-opacity="1" fill-rule="evenodd" stroke="#000" stroke-linejoin="round" stroke-opacity="1" stroke-width=".625" d="M 8.7185878,4.0337352 L -2.2072895,0.016013256 L 8.7185884,-4.0017078 C 6.9730900,-1.6296469 6.9831476,1.6157441 8.7185878,4.0337352 z" transform="scale(1.1) rotate(180) translate(1,0)"/></marker><marker id="Arrow2Lstart" orient="auto" overflow="visible" refX="0" refY="0"><path id="path842" fill="#000" fill-opacity="1" fill-rule="evenodd" stroke="#000" stroke-linejoin="round" stroke-opacity="1" stroke-width=".625" d="M 8.7185878,4.0337352 L -2.2072895,0.016013256 L 8.7185884,-4.0017078 C 6.9730900,-1.6296469 6.9831476,1.6157441 8.7185878,4.0337352 z" transform="scale(1.1) translate(1,0)"/></marker><marker id="TriangleInM-8" orient="auto" overflow="visible" refX="0" refY="0"><path id="path960-0" fill="#1f78b4" fill-opacity="1" fill-rule="evenodd" stroke="#1f78b4" stroke-opacity="1" stroke-width="1.333" d="M 5.77,0 -2.88,5 V -5 Z" transform="scale(-0.4)"/></marker><marker id="TriangleOutM-4" orient="auto" overflow="visible" refX="0" refY="0"><path id="path969-7" fill="#1f78b4" fill-opacity="1" fill-rule="evenodd" stroke="#1f78b4" stroke-opacity="1" stroke-width="1.333" d="M 5.77,0 -2.88,5 V -5 Z" transform="scale(0.4)"/></marker><marker id="marker1483-6" orient="auto" overflow="visible" refX="0" refY="0"><path id="path1150-2" fill="#000" fill-opacity="1" fill-rule="evenodd" stroke="#000" stroke-opacity="1" stroke-width="1.333" d="M 5.77,0 -2.88,5 V -5 Z" transform="scale(-0.2)"/></marker><marker id="marker1582-7" orient="auto" overflow="visible" refX="0" refY="0"><path id="path1159-8" fill="#000" fill-opacity="1" fill-rule="evenodd" stroke="#000" stroke-opacity="1" stroke-width="1.333" d="M 5.77,0 -2.88,5 V -5 Z" transform="scale(0.2)"/></marker></defs><linearGradient id="linearGradient6" x1="23" x2="23" y1="23" y2="29" gradientUnits="userSpaceOnUse"><stop id="stop2" offset="0" stop-color="#555753"/><stop id="stop4" offset="1" stop-color="#555753" stop-opacity="0"/></linearGradient><path id="path8677" fill="#1f78b4" fill-opacity="1" fill-rule="nonzero" stroke="#000" stroke-dasharray="none" stroke-dashoffset="0" stroke-linecap="butt" stroke-linejoin="miter" stroke-miterlimit="4" stroke-opacity="1" stroke-width=".749" d="M 0.6015625 0.5859375 L 2.7480469 8.6464844 L 4.3085938 7.0976562 L 9.1757812 11.980469 L 4.3007812 16.841797 L 2.7734375 15.298828 L 0.6015625 23.382812 L 8.6621094 21.236328 L 7.1132812 19.675781 L 11.996094 14.808594 L 16.857422 19.683594 L 15.314453 21.210938 L 23.398438 23.382812 L 21.251953 15.322266 L 19.691406 16.871094 L 14.824219 11.988281 L 19.699219 7.1269531 L 21.226562 8.6699219 L 23.398438 0.5859375 L 15.337891 2.7324219 L 16.886719 4.2929688 L 12.003906 9.1601562 L 7.1425781 4.2851562 L 8.6855469 2.7578125 L 0.6015625 0.5859375 z" baseline-shift="baseline" clip-rule="nonzero" color="#000" color-interpolation="sRGB" color-interpolation-filters="linearRGB" color-rendering="auto" direction="ltr" display="inline" dominant-baseline="auto" enable-background="accumulate" font-family="sans-serif" font-size="medium" font-stretch="normal" font-style="normal" font-variant="normal" font-weight="normal" image-rendering="auto" letter-spacing="normal" opacity="1" overflow="visible" shape-rendering="auto" text-anchor="start" text-decoration="none" text-rendering="auto" vector-effect="none" visibility="visible" word-spacing="normal" writing-mode="lr-tb" style="line-height:normal;font-variant-ligatures:normal;font-variant-position:normal;font-variant-caps:normal;font-variant-numeric:normal;font-variant-alternates:normal;font-feature-settings:normal;text-indent:0;text-align:start;text-decoration-line:none;text-decoration-style:solid;text-decoration-color:#000;text-transform:none;text-orientation:mixed;white-space:normal;shape-padding:0;isolation:auto;mix-blend-mode:normal;solid-color:#000;solid-opacity:1"/></svg>