<svg xmlns="http://www.w3.org/2000/svg" xmlns:svg="http://www.w3.org/2000/svg" id="svg4566" width="24" height="24" version="1.1" viewBox="0 0 24 24"><metadata id="metadata4572"/><linearGradient id="linearGradient4548" x1="-10" x2="-10" y1="15" y2="21" gradientUnits="userSpaceOnUse"><stop id="stop4544" offset="0" stop-color="#555753"/><stop id="stop4546" offset="1" stop-color="#555753" stop-opacity="0"/></linearGradient><g id="g4564" transform="translate(0,-8)"><g id="g4556" transform="translate(33,8)"><rect id="rect4550" width="11" height="11" x="-20" y="13" fill="#c4a000" rx="2.011"/><path id="path4552" fill="#fcffff" d="m -15,14 v 2.0625 c -0.537663,0.111041 -1.024662,0.383291 -1.375,0.78125 l -1.78125,-1.03125 -0.5,0.875 1.78125,1.03125 C -16.957063,17.966182 -17,18.225145 -17,18.5 c 0,0.274855 0.04294,0.533818 0.125,0.78125 l -1.78125,1.03125 0.5,0.875 1.78125,-1.03125 c 0.352503,0.40042 0.832682,0.670182 1.375,0.78125 V 23 h 1 v -2.0625 c 0.537663,-0.111041 1.024662,-0.383291 1.375,-0.78125 l 1.78125,1.03125 0.5,-0.875 -1.78125,-1.03125 C -12.042937,19.033818 -12,18.774855 -12,18.5 c 0,-0.274855 -0.04294,-0.533818 -0.125,-0.78125 l 1.78125,-1.03125 -0.5,-0.875 -1.78125,1.03125 C -12.977503,16.44333 -13.457682,16.173568 -14,16.0625 V 14 Z m 0.5,3.5 c 0.552,0 1,0.448 1,1 0,0.552 -0.448,1 -1,1 -0.552,0 -1,-0.448 -1,-1 0,-0.552 0.448,-1 1,-1 z"/><path id="path4554" fill="#fcffff" fill-rule="evenodd" d="m -19,19 9,-0.0096 c 0,0 0,0 0,-2 C -10,14 -11,14 -14.5,14 c -3.5,0 -4.5,0 -4.5,3 0,2 0,2 0,2 z" opacity=".3"/></g><rect id="rect4562" width="5" height="5" x="3.654" y="25.385" fill="#8cbe8c" stroke="#4c4d4c" stroke-linecap="round" stroke-opacity="1" stroke-width="1" rx="3.125"/><rect id="rect4562-9" width="5" height="5" x="17.077" y="10.692" fill="#c4a000" fill-opacity="1" stroke="#4c4d4c" stroke-linecap="round" stroke-opacity="1" stroke-width="1" rx="3.125"/><path id="path3744" fill="none" stroke="#4c4d4c" stroke-dasharray="none" stroke-linecap="butt" stroke-linejoin="miter" stroke-miterlimit="4" stroke-opacity="1" stroke-width="1.002" d="m 7.5384614,25.884615 c 0,0 2.2158828,-4.122021 4.3461536,-6.384615 2.417783,-2.567965 4.769231,-3.730769 6.038461,-4.615384"/><rect id="rect4562-9-5" width="5" height="5" x="1.923" y="11.615" fill="#c4a000" fill-opacity="1" stroke="#4c4d4c" stroke-linecap="round" stroke-opacity="1" stroke-width="1" rx="3.125"/><path id="path3744-2" fill="none" stroke="#4c4d4c" stroke-dasharray="none" stroke-linecap="butt" stroke-linejoin="miter" stroke-miterlimit="4" stroke-opacity="1" stroke-width="1.002" d="M 6.9235273,13.856094 C 11.139107,13.602637 13.334558,13.490248 17.231218,13.163787"/></g></svg>