<svg xmlns="http://www.w3.org/2000/svg" xmlns:svg="http://www.w3.org/2000/svg" id="svg20" width="24" height="24" version="1.1" viewBox="0 0 24 24"><metadata id="metadata26"/><defs id="defs24"><marker id="marker10187" orient="auto" overflow="visible" refX="0" refY="0"><path id="path10185" fill="#000" fill-opacity="1" fill-rule="evenodd" stroke="#000" stroke-opacity="1" stroke-width="1pt" d="M 5.77,0.0 L -2.88,5.0 L -2.88,-5.0 L 5.77,0.0 z" transform="scale(0.2)"/></marker><marker id="marker9859" orient="auto" overflow="visible" refX="0" refY="0"><path id="path9857" fill="#000" fill-opacity="1" fill-rule="evenodd" stroke="#000" stroke-opacity="1" stroke-width="1pt" d="M 5.77,0.0 L -2.88,5.0 L -2.88,-5.0 L 5.77,0.0 z" transform="scale(0.4)"/></marker><marker id="TriangleOutS" orient="auto" overflow="visible" refX="0" refY="0"><path id="path972" fill="#000" fill-opacity="1" fill-rule="evenodd" stroke="#000" stroke-opacity="1" stroke-width="1pt" d="M 5.77,0.0 L -2.88,5.0 L -2.88,-5.0 L 5.77,0.0 z" transform="scale(0.2)"/></marker><marker id="TriangleInS" orient="auto" overflow="visible" refX="0" refY="0"><path id="path963" fill="#000" fill-opacity="1" fill-rule="evenodd" stroke="#000" stroke-opacity="1" stroke-width="1pt" d="M 5.77,0.0 L -2.88,5.0 L -2.88,-5.0 L 5.77,0.0 z" transform="scale(-0.2)"/></marker><marker id="marker9486" orient="auto" overflow="visible" refX="0" refY="0"><path id="path9484" fill="#000" fill-opacity="1" fill-rule="evenodd" stroke="#000" stroke-opacity="1" stroke-width="1pt" d="M 5.77,0.0 L -2.88,5.0 L -2.88,-5.0 L 5.77,0.0 z" transform="scale(-0.4)"/></marker><marker id="marker8912" orient="auto" overflow="visible" refX="0" refY="0"><path id="path8910" fill="#000" fill-opacity="1" fill-rule="evenodd" stroke="#000" stroke-opacity="1" stroke-width="1pt" d="M 5.77,0.0 L -2.88,5.0 L -2.88,-5.0 L 5.77,0.0 z" transform="scale(0.4)"/></marker><marker id="marker8842" orient="auto" overflow="visible" refX="0" refY="0"><path id="path8840" fill="#000" fill-opacity="1" fill-rule="evenodd" stroke="#000" stroke-opacity="1" stroke-width="1pt" d="M 5.77,0.0 L -2.88,5.0 L -2.88,-5.0 L 5.77,0.0 z" transform="scale(-0.4)"/></marker><marker id="TriangleOutM" orient="auto" overflow="visible" refX="0" refY="0"><path id="path969" fill="#1f78b4" fill-opacity="1" fill-rule="evenodd" stroke="#1f78b4" stroke-opacity="1" stroke-width="1pt" d="M 5.77,0.0 L -2.88,5.0 L -2.88,-5.0 L 5.77,0.0 z" transform="scale(0.4)"/></marker><marker id="TriangleOutL" orient="auto" overflow="visible" refX="0" refY="0"><path id="path966" fill="#000" fill-opacity="1" fill-rule="evenodd" stroke="#000" stroke-opacity="1" stroke-width="1pt" d="M 5.77,0.0 L -2.88,5.0 L -2.88,-5.0 L 5.77,0.0 z" transform="scale(0.8)"/></marker><marker id="TriangleInM" orient="auto" overflow="visible" refX="0" refY="0"><path id="path960" fill="#1f78b4" fill-opacity="1" fill-rule="evenodd" stroke="#1f78b4" stroke-opacity="1" stroke-width="1pt" d="M 5.77,0.0 L -2.88,5.0 L -2.88,-5.0 L 5.77,0.0 z" transform="scale(-0.4)"/></marker><marker id="Arrow1Mstart" orient="auto" overflow="visible" refX="0" refY="0"><path id="path830" fill="#000" fill-opacity="1" fill-rule="evenodd" stroke="#000" stroke-opacity="1" stroke-width="1pt" d="M 0.0,0.0 L 5.0,-5.0 L -12.5,0.0 L 5.0,5.0 L 0.0,0.0 z" transform="scale(0.4) translate(10,0)"/></marker><marker id="Arrow2Lend" orient="auto" overflow="visible" refX="0" refY="0"><path id="path845" fill="#000" fill-opacity="1" fill-rule="evenodd" stroke="#000" stroke-linejoin="round" stroke-opacity="1" stroke-width=".625" d="M 8.7185878,4.0337352 L -2.2072895,0.016013256 L 8.7185884,-4.0017078 C 6.9730900,-1.6296469 6.9831476,1.6157441 8.7185878,4.0337352 z" transform="scale(1.1) rotate(180) translate(1,0)"/></marker><marker id="Arrow2Lstart" orient="auto" overflow="visible" refX="0" refY="0"><path id="path842" fill="#000" fill-opacity="1" fill-rule="evenodd" stroke="#000" stroke-linejoin="round" stroke-opacity="1" stroke-width=".625" d="M 8.7185878,4.0337352 L -2.2072895,0.016013256 L 8.7185884,-4.0017078 C 6.9730900,-1.6296469 6.9831476,1.6157441 8.7185878,4.0337352 z" transform="scale(1.1) translate(1,0)"/></marker><marker id="TriangleInM-8" orient="auto" overflow="visible" refX="0" refY="0"><path id="path960-0" fill="#1f78b4" fill-opacity="1" fill-rule="evenodd" stroke="#1f78b4" stroke-opacity="1" stroke-width="1.333" d="M 5.77,0 -2.88,5 V -5 Z" transform="scale(-0.4)"/></marker><marker id="TriangleOutM-4" orient="auto" overflow="visible" refX="0" refY="0"><path id="path969-7" fill="#1f78b4" fill-opacity="1" fill-rule="evenodd" stroke="#1f78b4" stroke-opacity="1" stroke-width="1.333" d="M 5.77,0 -2.88,5 V -5 Z" transform="scale(0.4)"/></marker></defs><linearGradient id="linearGradient6" x1="23" x2="23" y1="23" y2="29" gradientUnits="userSpaceOnUse"><stop id="stop2" offset="0" stop-color="#555753"/><stop id="stop4" offset="1" stop-color="#555753" stop-opacity="0"/></linearGradient><path id="path9855" fill="#1f78b4" fill-opacity="1" fill-rule="nonzero" stroke="#000" stroke-dasharray="none" stroke-dashoffset="0" stroke-linecap="square" stroke-linejoin="miter" stroke-miterlimit="4.7" stroke-opacity="1" stroke-width=".99" d="M 2.8417969,0.62108508 0.65234375,0.62874566 0.66796875,4.9225 2.8574219,4.9148394 c 6.6289052,-0.023437 9.5981261,1.0292867 10.9570311,2.5988513 1.117202,1.290393 1.588974,3.5913363 1.667969,7.1358283 l -3.199219,-0.05554 5.195313,8.369182 5.560546,-8.181498 -3.160156,-0.05554 C 19.84699,10.670977 19.38728,7.3162165 17.152344,4.7348158 14.477529,1.6453461 9.9326406,0.59601491 2.8417969,0.62108508 Z" baseline-shift="baseline" clip-rule="nonzero" color="#000" color-interpolation="sRGB" color-interpolation-filters="linearRGB" color-rendering="auto" direction="ltr" display="inline" dominant-baseline="auto" enable-background="accumulate" font-family="sans-serif" font-size="medium" font-stretch="normal" font-style="normal" font-variant="normal" font-weight="normal" image-rendering="auto" letter-spacing="normal" opacity="1" overflow="visible" shape-rendering="auto" text-anchor="start" text-decoration="none" text-rendering="auto" vector-effect="none" visibility="visible" word-spacing="normal" writing-mode="lr-tb" style="line-height:normal;font-variant-ligatures:normal;font-variant-position:normal;font-variant-caps:normal;font-variant-numeric:normal;font-variant-alternates:normal;font-feature-settings:normal;text-indent:0;text-align:start;text-decoration-line:none;text-decoration-style:solid;text-decoration-color:#000;text-transform:none;text-orientation:mixed;white-space:normal;shape-padding:0;isolation:auto;mix-blend-mode:normal;solid-color:#000;solid-opacity:1"/></svg>