<svg xmlns="http://www.w3.org/2000/svg" xmlns:svg="http://www.w3.org/2000/svg" id="svg20" width="24" height="24" version="1.1" viewBox="0 0 24 24"><metadata id="metadata26"/><defs id="defs24"><marker id="marker1290" orient="auto" overflow="visible" refX="0" refY="0"><path id="path1175" fill="#000" fill-opacity="1" fill-rule="evenodd" stroke="#000" stroke-opacity="1" stroke-width="1pt" d="M 5.77,0.0 L -2.88,5.0 L -2.88,-5.0 L 5.77,0.0 z" transform="scale(0.2)"/></marker><marker id="marker10187" orient="auto" overflow="visible" refX="0" refY="0"><path id="path10185" fill="#000" fill-opacity="1" fill-rule="evenodd" stroke="#000" stroke-opacity="1" stroke-width="1pt" d="M 5.77,0.0 L -2.88,5.0 L -2.88,-5.0 L 5.77,0.0 z" transform="scale(0.2)"/></marker><marker id="marker9859" orient="auto" overflow="visible" refX="0" refY="0"><path id="path9857" fill="#000" fill-opacity="1" fill-rule="evenodd" stroke="#000" stroke-opacity="1" stroke-width="1pt" d="M 5.77,0.0 L -2.88,5.0 L -2.88,-5.0 L 5.77,0.0 z" transform="scale(0.4)"/></marker><marker id="TriangleOutS" orient="auto" overflow="visible" refX="0" refY="0"><path id="path972" fill="#000" fill-opacity="1" fill-rule="evenodd" stroke="#000" stroke-opacity="1" stroke-width="1pt" d="M 5.77,0.0 L -2.88,5.0 L -2.88,-5.0 L 5.77,0.0 z" transform="scale(0.2)"/></marker><marker id="TriangleInS" orient="auto" overflow="visible" refX="0" refY="0"><path id="path963" fill="#000" fill-opacity="1" fill-rule="evenodd" stroke="#000" stroke-opacity="1" stroke-width="1pt" d="M 5.77,0.0 L -2.88,5.0 L -2.88,-5.0 L 5.77,0.0 z" transform="scale(-0.2)"/></marker><marker id="marker9486" orient="auto" overflow="visible" refX="0" refY="0"><path id="path9484" fill="#000" fill-opacity="1" fill-rule="evenodd" stroke="#000" stroke-opacity="1" stroke-width="1pt" d="M 5.77,0.0 L -2.88,5.0 L -2.88,-5.0 L 5.77,0.0 z" transform="scale(-0.4)"/></marker><marker id="marker8912" orient="auto" overflow="visible" refX="0" refY="0"><path id="path8910" fill="#000" fill-opacity="1" fill-rule="evenodd" stroke="#000" stroke-opacity="1" stroke-width="1pt" d="M 5.77,0.0 L -2.88,5.0 L -2.88,-5.0 L 5.77,0.0 z" transform="scale(0.4)"/></marker><marker id="marker8842" orient="auto" overflow="visible" refX="0" refY="0"><path id="path8840" fill="#000" fill-opacity="1" fill-rule="evenodd" stroke="#000" stroke-opacity="1" stroke-width="1pt" d="M 5.77,0.0 L -2.88,5.0 L -2.88,-5.0 L 5.77,0.0 z" transform="scale(-0.4)"/></marker><marker id="TriangleOutM" orient="auto" overflow="visible" refX="0" refY="0"><path id="path969" fill="#1f78b4" fill-opacity="1" fill-rule="evenodd" stroke="#1f78b4" stroke-opacity="1" stroke-width="1pt" d="M 5.77,0.0 L -2.88,5.0 L -2.88,-5.0 L 5.77,0.0 z" transform="scale(0.4)"/></marker><marker id="TriangleOutL" orient="auto" overflow="visible" refX="0" refY="0"><path id="path966" fill="#000" fill-opacity="1" fill-rule="evenodd" stroke="#000" stroke-opacity="1" stroke-width="1pt" d="M 5.77,0.0 L -2.88,5.0 L -2.88,-5.0 L 5.77,0.0 z" transform="scale(0.8)"/></marker><marker id="TriangleInM" orient="auto" overflow="visible" refX="0" refY="0"><path id="path960" fill="#1f78b4" fill-opacity="1" fill-rule="evenodd" stroke="#1f78b4" stroke-opacity="1" stroke-width="1pt" d="M 5.77,0.0 L -2.88,5.0 L -2.88,-5.0 L 5.77,0.0 z" transform="scale(-0.4)"/></marker><marker id="Arrow1Mstart" orient="auto" overflow="visible" refX="0" refY="0"><path id="path830" fill="#000" fill-opacity="1" fill-rule="evenodd" stroke="#000" stroke-opacity="1" stroke-width="1pt" d="M 0.0,0.0 L 5.0,-5.0 L -12.5,0.0 L 5.0,5.0 L 0.0,0.0 z" transform="scale(0.4) translate(10,0)"/></marker><marker id="Arrow2Lend" orient="auto" overflow="visible" refX="0" refY="0"><path id="path845" fill="#000" fill-opacity="1" fill-rule="evenodd" stroke="#000" stroke-linejoin="round" stroke-opacity="1" stroke-width=".625" d="M 8.7185878,4.0337352 L -2.2072895,0.016013256 L 8.7185884,-4.0017078 C 6.9730900,-1.6296469 6.9831476,1.6157441 8.7185878,4.0337352 z" transform="scale(1.1) rotate(180) translate(1,0)"/></marker><marker id="Arrow2Lstart" orient="auto" overflow="visible" refX="0" refY="0"><path id="path842" fill="#000" fill-opacity="1" fill-rule="evenodd" stroke="#000" stroke-linejoin="round" stroke-opacity="1" stroke-width=".625" d="M 8.7185878,4.0337352 L -2.2072895,0.016013256 L 8.7185884,-4.0017078 C 6.9730900,-1.6296469 6.9831476,1.6157441 8.7185878,4.0337352 z" transform="scale(1.1) translate(1,0)"/></marker><marker id="TriangleInM-8" orient="auto" overflow="visible" refX="0" refY="0"><path id="path960-0" fill="#1f78b4" fill-opacity="1" fill-rule="evenodd" stroke="#1f78b4" stroke-opacity="1" stroke-width="1.333" d="M 5.77,0 -2.88,5 V -5 Z" transform="scale(-0.4)"/></marker><marker id="TriangleOutM-4" orient="auto" overflow="visible" refX="0" refY="0"><path id="path969-7" fill="#1f78b4" fill-opacity="1" fill-rule="evenodd" stroke="#1f78b4" stroke-opacity="1" stroke-width="1.333" d="M 5.77,0 -2.88,5 V -5 Z" transform="scale(0.4)"/></marker></defs><linearGradient id="linearGradient6" x1="23" x2="23" y1="23" y2="29" gradientUnits="userSpaceOnUse"><stop id="stop2" offset="0" stop-color="#555753"/><stop id="stop4" offset="1" stop-color="#555753" stop-opacity="0"/></linearGradient><path id="path935" fill="#1f78b4" fill-opacity="1" fill-rule="nonzero" stroke="#000" stroke-dasharray="none" stroke-dashoffset="0" stroke-linecap="butt" stroke-linejoin="miter" stroke-miterlimit="4" stroke-opacity="1" stroke-width=".964" d="M 2.2876454,0.94394841 2.2567962,4.7114751 c 3.6001226,0.026877 9.1501048,-0.014391 11.7535758,0.027595 2.26522,0.03653 5.132533,2.5901877 5.174965,5.8058159 0.0229,1.736001 -0.393046,3.23005 -1.099006,4.216394 -0.705958,0.986343 -1.612522,1.576834 -3.25267,1.70532 C 14.288206,16.50934 11.928655,16.50278 9.92477,16.4611 9.115073,16.44427 9.0267597,16.43783 8.3900181,16.42063 l 0.077123,-2.575457 -6.9622963,4.209034 6.6923651,4.737002 0.079051,-2.603052 c 0.6463682,0.01759 0.736295,0.02331 1.5617446,0.04047 2.0330755,0.04226 4.1403595,0.08501 5.3195725,-0.0074 2.679872,-0.209935 4.882225,-1.506549 6.191065,-3.335218 1.308838,-1.828669 1.815891,-4.076366 1.7854,-6.387135 C 23.065625,5.313915 18.937537,1.0517509 14.077854,0.97338221 11.339701,0.9292249 5.8239748,0.97034859 2.2876454,0.94394841 Z" baseline-shift="baseline" clip-rule="nonzero" color="#000" color-interpolation="sRGB" color-interpolation-filters="linearRGB" color-rendering="auto" direction="ltr" display="inline" dominant-baseline="auto" enable-background="accumulate" font-family="sans-serif" font-size="medium" font-stretch="normal" font-style="normal" font-variant="normal" font-weight="normal" image-rendering="auto" letter-spacing="normal" opacity="1" overflow="visible" shape-rendering="auto" text-anchor="start" text-decoration="none" text-rendering="auto" vector-effect="none" visibility="visible" word-spacing="normal" writing-mode="lr-tb" style="line-height:normal;font-variant-ligatures:normal;font-variant-position:normal;font-variant-caps:normal;font-variant-numeric:normal;font-variant-alternates:normal;font-feature-settings:normal;text-indent:0;text-align:start;text-decoration-line:none;text-decoration-style:solid;text-decoration-color:#000;text-transform:none;text-orientation:mixed;white-space:normal;shape-padding:0;isolation:auto;mix-blend-mode:normal;solid-color:#000;solid-opacity:1"/></svg>