<svg xmlns="http://www.w3.org/2000/svg" xmlns:svg="http://www.w3.org/2000/svg" id="svg20" width="24" height="24" version="1.1" viewBox="0 0 24 24"><metadata id="metadata26"/><linearGradient id="linearGradient6" x1="23" x2="23" y1="23" y2="29" gradientUnits="userSpaceOnUse"><stop id="stop2" offset="0" stop-color="#555753"/><stop id="stop4" offset="1" stop-color="#555753" stop-opacity="0"/></linearGradient><path id="path8" fill="#1f78b4" fill-opacity="1" fill-rule="evenodd" stroke="#000" stroke-dasharray="none" stroke-linecap="round" stroke-linejoin="round" stroke-miterlimit="4" stroke-opacity="1" stroke-width="1" d="M 8.2150933,1.4388891 C 5.3967461,1.4855259 2.9272691,2.694145 1.9311095,5.633615 0.9426417,8.550386 3.102596,13.815623 7.8636858,11.474118 15.771427,7.585091 15.767489,12.4375 17.744424,12.4375 c 2.438571,0 4.94037,-1.699566 4.94037,-3.873599 0,-1.944514 0.09638,-3.806388 -0.992208,-4.87712 C 19.715651,1.742267 18.718909,4.674177 13.403515,2.502623 11.709498,1.8105484 9.906102,1.4109061 8.2150933,1.4388891 Z"/><path id="path12" fill="#fcffff" fill-rule="evenodd" d="M 14.000001,18.999999 23,18.9904 c 0,0 0,0 0,-2 C 23,14 22,14 18.5,14 15,14 14,14 14,17 c 0,2 0,2 10e-7,1.999999 z" opacity=".3"/><path id="path14" fill="none" stroke="#fff" stroke-linecap="square" stroke-width="1.5" d="m 21.498844,18.2375 c 0,-1.520773 -1.240344,-2.750705 -2.999423,-2.737371 C 16.601216,15.484759 15.5,16.747684 15.5,18.5 c 0,1.439852 1.50029,2.5 3,2.5"/><path id="path16" fill="none" stroke="#fff" stroke-linecap="round" stroke-linejoin="round" stroke-width="1.5" d="m 18.58077,19 1.5,2 -1.5,2"/><path id="path8-0" fill="#ff3230" fill-opacity="1" fill-rule="evenodd" stroke="#000" stroke-dasharray="none" stroke-linecap="round" stroke-linejoin="round" stroke-miterlimit="4" stroke-opacity="1" stroke-width="1" d="m 14.689276,13.043 c -1.695325,-0.92621 -3.603022,-1.055425 -5.259125,0.325178 -1.6433127,1.36994 -2.2607369,5.177282 1.42135,5.419787 6.115618,0.402781 4.35876,3.236837 5.536119,3.905648 1.452285,0.824984 3.556748,0.678258 4.342826,-0.592092 0.703088,-1.13623 1.433695,-2.191566 1.172539,-3.185498 -0.474268,-1.805042 -2.127985,-0.429052 -4.508377,-3.496182 -0.75863,-0.977494 -1.688137,-1.821115 -2.705333,-2.376845 z"/></svg>